<svg width="82" height="82" viewBox="0 0 82 82" fill="none" xmlns="http://www.w3.org/2000/svg">
<path d="M74.3125 69.1875H66.625V12.8125C66.625 11.4533 66.085 10.1497 65.1239 9.18858C64.1628 8.22745 62.8592 7.6875 61.5 7.6875H20.5C19.1408 7.6875 17.8372 8.22745 16.8761 9.18858C15.915 10.1497 15.375 11.4533 15.375 12.8125V69.1875H7.6875C7.00788 69.1875 6.3561 69.4575 5.87554 69.938C5.39498 70.4186 5.125 71.0704 5.125 71.75C5.125 72.4296 5.39498 73.0814 5.87554 73.562C6.3561 74.0425 7.00788 74.3125 7.6875 74.3125H74.3125C74.9921 74.3125 75.6439 74.0425 76.1245 73.562C76.605 73.0814 76.875 72.4296 76.875 71.75C76.875 71.0704 76.605 70.4186 76.1245 69.938C75.6439 69.4575 74.9921 69.1875 74.3125 69.1875ZM52.5312 46.125C51.771 46.125 51.0279 45.8996 50.3958 45.4772C49.7637 45.0549 49.271 44.4545 48.9801 43.7522C48.6892 43.0498 48.613 42.277 48.7614 41.5314C48.9097 40.7858 49.2758 40.1009 49.8133 39.5633C50.3509 39.0257 51.0358 38.6597 51.7814 38.5114C52.527 38.363 53.2998 38.4392 54.0022 38.7301C54.7045 39.021 55.3049 39.5137 55.7272 40.1458C56.1496 40.7779 56.375 41.521 56.375 42.2812C56.375 43.3007 55.97 44.2783 55.2492 44.9992C54.5283 45.72 53.5507 46.125 52.5312 46.125Z" fill="white"/>
</svg>
