<svg width="82" height="82" viewBox="0 0 82 82" fill="none" xmlns="http://www.w3.org/2000/svg">
<path d="M74.3125 66.625C74.3125 67.3046 74.0425 67.9564 73.562 68.437C73.0814 68.9175 72.4296 69.1875 71.75 69.1875H10.25C9.57038 69.1875 8.9186 68.9175 8.43804 68.437C7.95748 67.9564 7.6875 67.3046 7.6875 66.625C7.6875 65.9454 7.95748 65.2936 8.43804 64.813C8.9186 64.3325 9.57038 64.0625 10.25 64.0625H12.8125V43.5625C12.8125 42.8829 13.0825 42.2311 13.563 41.7505C14.0436 41.27 14.6954 41 15.375 41H23.0625C23.7421 41 24.3939 41.27 24.8745 41.7505C25.355 42.2311 25.625 42.8829 25.625 43.5625V64.0625H30.75V28.1875C30.75 27.5079 31.02 26.8561 31.5005 26.3755C31.9811 25.895 32.6329 25.625 33.3125 25.625H43.5625C44.2421 25.625 44.8939 25.895 45.3745 26.3755C45.855 26.8561 46.125 27.5079 46.125 28.1875V64.0625H51.25V12.8125C51.25 12.1329 51.52 11.4811 52.0005 11.0005C52.4811 10.52 53.1329 10.25 53.8125 10.25H66.625C67.3046 10.25 67.9564 10.52 68.437 11.0005C68.9175 11.4811 69.1875 12.1329 69.1875 12.8125V64.0625H71.75C72.4296 64.0625 73.0814 64.3325 73.562 64.813C74.0425 65.2936 74.3125 65.9454 74.3125 66.625Z" fill="white"/>
</svg>
