<svg width="82" height="82" viewBox="0 0 82 82" fill="none" xmlns="http://www.w3.org/2000/svg">
<path d="M77.9416 29.1198L36.8103 70.2479C36.3344 70.7239 35.7694 71.1015 35.1475 71.3591C34.5256 71.6168 33.8591 71.7494 33.186 71.7494C32.5128 71.7494 31.8463 71.6168 31.2244 71.3591C30.6026 71.1015 30.0375 70.7239 29.5616 70.2479L6.62085 47.1854C5.66143 46.2245 5.12256 44.9221 5.12256 43.5642C5.12256 42.2064 5.66143 40.904 6.62085 39.9431L14.3083 32.2556C15.2662 31.2975 16.5644 30.7577 17.9191 30.7541C19.2738 30.7505 20.5749 31.2834 21.5378 32.2364L33.2741 43.5338L33.3093 43.569L63.0119 14.3021C63.9724 13.3456 65.2727 12.8086 66.6282 12.8086C67.9837 12.8086 69.284 13.3456 70.2445 14.3021L77.932 21.8487C78.412 22.3243 78.7932 22.8903 79.0537 23.5139C79.3141 24.1375 79.4487 24.8064 79.4496 25.4822C79.4505 26.158 79.3177 26.8273 79.0589 27.4516C78.8001 28.0759 78.4204 28.6428 77.9416 29.1198Z" fill="white"/>
</svg>
