<svg width="82" height="82" viewBox="0 0 82 82" fill="none" xmlns="http://www.w3.org/2000/svg">
<path d="M74.3125 69.1875H66.625V12.8125C66.625 11.4533 66.085 10.1497 65.1239 9.18858C64.1628 8.22745 62.8592 7.6875 61.5 7.6875H20.5C19.1408 7.6875 17.8372 8.22745 16.8761 9.18858C15.915 10.1497 15.375 11.4533 15.375 12.8125V69.1875H7.6875C7.00788 69.1875 6.3561 69.4575 5.87554 69.938C5.39498 70.4186 5.125 71.0704 5.125 71.75C5.125 72.4296 5.39498 73.0814 5.87554 73.562C6.3561 74.0425 7.00788 74.3125 7.6875 74.3125H74.3125C74.9921 74.3125 75.6439 74.0425 76.1245 73.562C76.605 73.0814 76.875 72.4296 76.875 71.75C76.875 71.0704 76.605 70.4186 76.1245 69.938C75.6439 69.4575 74.9921 69.1875 74.3125 69.1875ZM53.8125 69.1875H20.5V12.8125H53.8125V69.1875ZM41 42.2812C41 41.521 41.2254 40.7779 41.6478 40.1458C42.0701 39.5137 42.6705 39.021 43.3728 38.7301C44.0752 38.4392 44.848 38.363 45.5936 38.5114C46.3392 38.6597 47.0241 39.0257 47.5617 39.5633C48.0992 40.1009 48.4653 40.7858 48.6136 41.5314C48.762 42.277 48.6858 43.0498 48.3949 43.7522C48.104 44.4545 47.6113 45.0549 46.9792 45.4772C46.3471 45.8996 45.604 46.125 44.8438 46.125C43.8243 46.125 42.8467 45.72 42.1258 44.9992C41.405 44.2783 41 43.3007 41 42.2812Z" fill="white"/>
</svg>
