<svg width="82" height="82" viewBox="0 0 82 82" fill="none" xmlns="http://www.w3.org/2000/svg">
<path d="M69.1875 15.375H56.375V12.8125C56.375 10.7736 55.5651 8.8183 54.1234 7.37662C52.6817 5.93493 50.7264 5.125 48.6875 5.125H33.3125C31.2736 5.125 29.3183 5.93493 27.8766 7.37662C26.4349 8.8183 25.625 10.7736 25.625 12.8125V15.375H12.8125C12.1329 15.375 11.4811 15.645 11.0005 16.1255C10.52 16.6061 10.25 17.2579 10.25 17.9375C10.25 18.6171 10.52 19.2689 11.0005 19.7495C11.4811 20.23 12.1329 20.5 12.8125 20.5H15.375V66.625C15.375 67.9842 15.915 69.2878 16.8761 70.2489C17.8372 71.21 19.1408 71.75 20.5 71.75H61.5C62.8592 71.75 64.1628 71.21 65.1239 70.2489C66.085 69.2878 66.625 67.9842 66.625 66.625V20.5H69.1875C69.8671 20.5 70.5189 20.23 70.9995 19.7495C71.48 19.2689 71.75 18.6171 71.75 17.9375C71.75 17.2579 71.48 16.6061 70.9995 16.1255C70.5189 15.645 69.8671 15.375 69.1875 15.375ZM35.875 53.8125C35.875 54.4921 35.605 55.1439 35.1245 55.6245C34.6439 56.105 33.9921 56.375 33.3125 56.375C32.6329 56.375 31.9811 56.105 31.5005 55.6245C31.02 55.1439 30.75 54.4921 30.75 53.8125V33.3125C30.75 32.6329 31.02 31.9811 31.5005 31.5005C31.9811 31.02 32.6329 30.75 33.3125 30.75C33.9921 30.75 34.6439 31.02 35.1245 31.5005C35.605 31.9811 35.875 32.6329 35.875 33.3125V53.8125ZM51.25 53.8125C51.25 54.4921 50.98 55.1439 50.4995 55.6245C50.0189 56.105 49.3671 56.375 48.6875 56.375C48.0079 56.375 47.3561 56.105 46.8755 55.6245C46.395 55.1439 46.125 54.4921 46.125 53.8125V33.3125C46.125 32.6329 46.395 31.9811 46.8755 31.5005C47.3561 31.02 48.0079 30.75 48.6875 30.75C49.3671 30.75 50.0189 31.02 50.4995 31.5005C50.98 31.9811 51.25 32.6329 51.25 33.3125V53.8125ZM51.25 15.375H30.75V12.8125C30.75 12.1329 31.02 11.4811 31.5005 11.0005C31.9811 10.52 32.6329 10.25 33.3125 10.25H48.6875C49.3671 10.25 50.0189 10.52 50.4995 11.0005C50.98 11.4811 51.25 12.1329 51.25 12.8125V15.375Z" fill="white"/>
</svg>
